<?xml version="1.0" encoding="utf-8"?>
<!-- Generator: Adobe Illustrator 24.1.3, SVG Export Plug-In . SVG Version: 6.00 Build 0)  -->
<svg version="1.1" id="Layer_1" xmlns="http://www.w3.org/2000/svg" xmlns:xlink="http://www.w3.org/1999/xlink" x="0px" y="0px"
	 viewBox="0 0 100 100" style="enable-background:new 0 0 100 100;" xml:space="preserve">
<style type="text/css">
	.st0{fill:#F3C144;}
	.st1{opacity:0.4;fill:url(#SVGID_1_);}
	.st2{fill:#005B83;}
	.st3{fill:#FFFFFF;}
	.st4{fill:#00CFDD;}
</style>
<g>
	<path class="st0" d="M94.11,50.06c0,24.43-19.8,44.22-44.23,44.22c-1.59,0-3.16-0.08-4.69-0.24c-0.94-0.1-1.88-0.23-2.8-0.39
		C21.53,90.09,5.66,71.93,5.66,50.06c0-24.43,19.79-44.22,44.22-44.22c24.03,0,43.58,19.16,44.2,43.03
		c0.01,0.24,0.02,0.47,0.02,0.71C94.11,49.74,94.11,49.9,94.11,50.06z"/>
	<g>
		<linearGradient id="SVGID_1_" gradientUnits="userSpaceOnUse" x1="17.9831" y1="25.7594" x2="67.8597" y2="69.7245">
			<stop  offset="0" style="stop-color:#676767"/>
			<stop  offset="0.9632" style="stop-color:#FFFFFF"/>
		</linearGradient>
		<path class="st1" d="M94.11,50.06c0,24.43-19.8,44.22-44.23,44.22c-1.59,0-3.16-0.08-4.69-0.24c-0.94-0.1-1.88-0.23-2.8-0.39
			C28.75,80.06,13.46,64.58,13.46,64.13v-0.17h-0.18c-0.39,0-0.75-0.16-1.01-0.42c-0.07-0.06-0.12-0.14-0.18-0.21
			c-0.15-0.23-0.24-0.51-0.24-0.81v-2.87c0-0.26,0.07-0.51,0.19-0.72c0.03-0.07,0.08-0.13,0.13-0.18c0.03-0.04,0.06-0.08,0.1-0.12
			c0.03-0.03,0.06-0.06,0.09-0.08c0.08-0.07,0.18-0.13,0.28-0.18c0.19-0.1,0.41-0.16,0.64-0.16h7.2c-0.01-0.04-1.47-1.72-1.62-1.89
			c-0.01-0.01-0.01-0.01-0.01-0.01h-0.17c-0.3,0-0.58-0.09-0.81-0.24c-0.15-0.11-0.28-0.24-0.39-0.39
			c-0.15-0.23-0.24-0.51-0.24-0.81V25.33c0-0.2,0.04-0.39,0.11-0.56c0.03-0.09,0.08-0.16,0.13-0.24c0.06-0.08,0.12-0.15,0.18-0.21
			c0.26-0.26,0.62-0.42,1.01-0.42h49.25c0.4,0,0.76,0.16,1.02,0.42c0.13,0.13,0.24,0.28,0.31,0.45c0.07,0.17,0.11,0.37,0.11,0.57
			v0.17h0.16c0,0.22,12.74,12.61,12.74,12.73h1.45c0.01,0,0.01,0,0.02,0c0.64,0.02,1.16,1.61,1.16,1.61s3.75,3.67,9.19,9.02
			c0.01,0.24,0.02,0.47,0.02,0.71C94.11,49.74,94.11,49.9,94.11,50.06z"/>
		<g>
			<g>
				<g>
					<path class="st2" d="M69.36,54.87c0,0.79-0.64,1.44-1.44,1.44H18.68c-0.79,0-1.44-0.64-1.44-1.44V25.33
						c0-0.8,0.64-1.44,1.44-1.44h49.24c0.8,0,1.44,0.64,1.44,1.44V54.87z"/>
				</g>
				<g>
					<rect x="20.42" y="26.85" class="st3" width="45.41" height="26.12"/>
				</g>
				<g>
					<path class="st2" d="M74.75,62.52c0,0.79-0.65,1.44-1.44,1.44H13.29c-0.79,0-1.44-0.64-1.44-1.44v-2.87
						c0-0.79,0.64-1.44,1.44-1.44h60.03c0.79,0,1.44,0.64,1.44,1.44V62.52z"/>
				</g>
			</g>
			<path class="st0" d="M59.05,30.68c0-1.31-1.06-2.38-2.38-2.38c-1.31,0-2.38,1.06-2.38,2.38c0,0.75,0.35,1.4,0.89,1.84
				l-4.85,14.51L44.87,35.4c0.36-0.42,0.59-0.96,0.59-1.55c0-1.31-1.06-2.38-2.38-2.38c-1.31,0-2.38,1.06-2.38,2.38
				c0,0.65,0.26,1.24,0.69,1.67L36.04,45.6l-2.58-4.05c0.51-0.44,0.84-1.07,0.84-1.8c0-1.31-1.06-2.38-2.38-2.38
				c-1.31,0-2.37,1.06-2.37,2.38c0,0.58,0.21,1.1,0.55,1.51l-4.86,8.89c-0.22,0.4-0.07,0.9,0.33,1.12c0.13,0.07,0.26,0.1,0.4,0.1
				c0.29,0,0.58-0.16,0.73-0.43l4.84-8.86c0.11,0.02,0.22,0.03,0.33,0.03l3.54,5.57c0.16,0.25,0.44,0.41,0.73,0.38
				c0.29-0.01,0.56-0.18,0.7-0.44l6.07-11.43c0.06,0,0.12,0.02,0.18,0.02c0.11,0,0.22-0.02,0.33-0.03l6.3,13.41
				c0.15,0.31,0.47,0.5,0.8,0.47c0.34-0.02,0.63-0.24,0.74-0.56l5.51-16.46C58.03,33,59.05,31.96,59.05,30.68z"/>
			<g>
				<g>
					<path class="st2" d="M84.89,73.98c0,0.65-0.53,1.17-1.17,1.17H62.16c-0.65,0-1.17-0.52-1.17-1.17V39.41
						c0-0.65,0.53-1.17,1.17-1.17h21.56c0.65,0,1.17,0.53,1.17,1.17V73.98z"/>
				</g>
				<g>
					<rect x="63.74" y="41.08" class="st3" width="18.4" height="30.24"/>
				</g>
				<g>
					<g>
						<path class="st3" d="M73.92,73.21c0,0.57-0.46,1.04-1.04,1.04l0,0c-0.57,0-1.03-0.46-1.03-1.04l0,0
							c0-0.57,0.46-1.04,1.03-1.04l0,0C73.46,72.18,73.92,72.64,73.92,73.21L73.92,73.21z"/>
					</g>
					<g>
						<path class="st3" d="M78.78,73.14c0,0.23-0.19,0.41-0.41,0.41h-2.42c-0.23,0-0.41-0.19-0.41-0.41l0,0
							c0-0.23,0.18-0.41,0.41-0.41h2.42C78.6,72.73,78.78,72.92,78.78,73.14L78.78,73.14z"/>
					</g>
					<g>
						<path class="st3" d="M70.33,73.14c0,0.23-0.18,0.41-0.41,0.41H67.5c-0.23,0-0.41-0.19-0.41-0.41l0,0
							c0-0.23,0.18-0.41,0.41-0.41h2.42C70.15,72.73,70.33,72.92,70.33,73.14L70.33,73.14z"/>
					</g>
				</g>
			</g>
			<g>
				<path class="st4" d="M80.45,58.68l-0.58-2.19c-0.1-0.34-0.44-0.54-0.78-0.45l-1.54,0.41c-0.24-0.39-0.53-0.77-0.86-1.11
					l0.8-1.38c0.17-0.31,0.07-0.69-0.23-0.87l-1.97-1.13c-0.3-0.17-0.69-0.07-0.86,0.23l-0.8,1.39c-0.46-0.11-0.93-0.18-1.39-0.19
					l-0.42-1.54c-0.09-0.34-0.43-0.54-0.77-0.45l-1.69,0.45l-0.51,0.14c-0.06,0.02-0.11,0.05-0.16,0.09
					c0.14-0.16,0.16-0.4,0.02-0.58l-0.69-0.89c0.19-0.27,0.36-0.56,0.49-0.87l0.85,0.11l0.28,0.03c0.25,0.03,0.47-0.15,0.5-0.39
					l0.21-1.61c0.03-0.25-0.15-0.47-0.39-0.5l-0.6-0.08l-0.54-0.07c-0.05-0.33-0.14-0.65-0.26-0.96l0.8-0.62l0.1-0.08
					c0.2-0.15,0.24-0.43,0.08-0.63l-0.18-0.23l-0.81-1.05c-0.15-0.2-0.44-0.23-0.63-0.08l-0.9,0.7c-0.27-0.2-0.56-0.36-0.87-0.49
					l0.14-1.14c0.03-0.24-0.14-0.47-0.39-0.5l-0.08-0.01l-1.53-0.19c-0.24-0.03-0.47,0.14-0.5,0.39l-0.06,0.48l-0.08,0.65
					c-0.34,0.05-0.66,0.14-0.97,0.26l-0.7-0.9c-0.15-0.2-0.43-0.23-0.63-0.08l-0.37,0.29l-0.91,0.71c-0.19,0.15-0.23,0.43-0.08,0.63
					l0.7,0.9c-0.19,0.26-0.36,0.56-0.49,0.87L59.06,46c-0.24-0.03-0.47,0.15-0.5,0.4l-0.2,1.6c-0.03,0.25,0.14,0.47,0.39,0.51
					l1.13,0.14c0.05,0.33,0.14,0.65,0.26,0.96l-0.9,0.7c-0.19,0.15-0.23,0.44-0.08,0.63l1,1.28c0.15,0.2,0.43,0.24,0.63,0.08
					l0.19-0.15l0.71-0.55c0.27,0.2,0.56,0.36,0.87,0.5l-0.11,0.87l-0.03,0.26c-0.04,0.25,0.14,0.47,0.39,0.5l0.92,0.12l0.68,0.09
					c0.25,0.03,0.48-0.15,0.51-0.4l0.07-0.57l0.07-0.56c0.26-0.04,0.52-0.1,0.76-0.19c0.07-0.02,0.14-0.04,0.2-0.07l0.7,0.9
					c0.16,0.2,0.44,0.23,0.63,0.08l1.18-0.91c-0.12,0.15-0.18,0.35-0.12,0.55l0.41,1.54c-0.39,0.24-0.76,0.53-1.11,0.86l-1.38-0.8
					c-0.31-0.17-0.69-0.07-0.87,0.23l-0.99,1.72l-0.14,0.25c-0.17,0.3-0.07,0.69,0.23,0.86l1.36,0.78l0.03,0.02
					c-0.11,0.46-0.18,0.93-0.19,1.39l-1.54,0.42c-0.34,0.09-0.54,0.43-0.45,0.77l0.6,2.19c0.08,0.34,0.43,0.54,0.77,0.45l1.54-0.41
					c0.2,0.32,0.43,0.63,0.7,0.92c0.05,0.07,0.1,0.13,0.16,0.19l-0.8,1.38c-0.18,0.31-0.07,0.69,0.23,0.87l1.97,1.13
					c0.3,0.18,0.69,0.07,0.86-0.23l0.8-1.39c0.46,0.11,0.93,0.18,1.39,0.18l0.42,1.55c0.09,0.34,0.44,0.54,0.77,0.44l2.2-0.58
					c0.33-0.1,0.53-0.44,0.44-0.78l-0.41-1.54c0.39-0.24,0.77-0.53,1.11-0.86l1.38,0.8c0.31,0.17,0.69,0.07,0.87-0.23l1.13-1.97
					c0.18-0.3,0.07-0.69-0.23-0.87l-1.39-0.79c0.11-0.46,0.18-0.93,0.19-1.39l1.54-0.42C80.35,59.36,80.55,59.01,80.45,58.68z
					 M67.06,48.28c-0.11,0.83-0.58,1.53-1.24,1.95c-0.52,0.33-1.15,0.49-1.81,0.41c-0.1-0.01-0.19-0.03-0.28-0.05
					c-1.34-0.31-2.26-1.6-2.08-2.99c0.15-1.16,1.01-2.06,2.08-2.3c0.31-0.08,0.63-0.1,0.96-0.06c0.41,0.05,0.8,0.2,1.13,0.41
					C66.67,46.2,67.19,47.2,67.06,48.28z M75.43,61.65c-0.19,0.33-0.42,0.62-0.68,0.86v0.01c-1.2,1.13-3.05,1.39-4.54,0.53
					c-1.71-0.98-2.36-3.09-1.58-4.84c0.05-0.13,0.11-0.25,0.18-0.37c1.05-1.83,3.39-2.46,5.21-1.4
					C75.85,57.49,76.48,59.83,75.43,61.65z"/>
				<path class="st4" d="M62.97,58.58l-0.1-0.37l-0.5-1.89L62.2,55.7c-0.12-0.45-0.58-0.71-1.02-0.59l-0.2,0.05l-1.83,0.49
					c-0.31-0.52-0.69-1.01-1.12-1.45l0.71-1.23l0.34-0.59c0.23-0.41,0.09-0.91-0.31-1.14l-2.59-1.49c-0.39-0.23-0.9-0.1-1.13,0.3
					L54,51.88c-0.61-0.15-1.22-0.23-1.83-0.25l-0.54-2.02c-0.05-0.18-0.15-0.33-0.28-0.43c-0.2-0.17-0.47-0.23-0.74-0.16l-1.04,0.28
					l-1.84,0.49c-0.45,0.12-0.71,0.58-0.59,1.02l0.54,2.03c-0.07,0.04-0.14,0.09-0.2,0.13c-0.45,0.29-0.86,0.63-1.25,1l-1.73-1
					l-0.09-0.05c-0.29-0.17-0.65-0.14-0.9,0.05c-0.1,0.06-0.18,0.15-0.24,0.25l-1.49,2.59c-0.09,0.16-0.13,0.34-0.1,0.51
					c0.03,0.25,0.17,0.49,0.41,0.62l1.82,1.05c-0.02,0.07-0.03,0.15-0.05,0.22c-0.12,0.54-0.18,1.07-0.19,1.61l-2.03,0.54
					c-0.45,0.12-0.71,0.58-0.59,1.02l0.7,2.58l0.08,0.3c0.11,0.45,0.57,0.71,1.02,0.59l2.02-0.54c0.32,0.52,0.7,1.01,1.13,1.45
					l-1.05,1.83c-0.23,0.4-0.09,0.91,0.3,1.13l2.59,1.49c0.4,0.23,0.91,0.1,1.13-0.3l1.05-1.83c0.61,0.15,1.22,0.24,1.83,0.25
					l0.55,2.02c0.12,0.45,0.57,0.71,1.02,0.59l2.88-0.77c0.44-0.12,0.7-0.58,0.58-1.02l-0.54-2.03c0.52-0.32,1.01-0.69,1.46-1.13
					l1.82,1.05c0.4,0.23,0.91,0.1,1.14-0.3l0.22-0.38l1.26-2.21c0.04-0.06,0.06-0.13,0.08-0.19c0.1-0.35-0.04-0.75-0.38-0.94
					l-0.96-0.55l-0.86-0.5c0.14-0.61,0.23-1.22,0.24-1.83l0.62-0.16l1.41-0.38C62.83,59.47,63.09,59.02,62.97,58.58z M49.51,64.33
					c-0.2-0.11-0.38-0.24-0.56-0.37c-1.75-1.35-2.41-3.7-1.63-5.75c0.09-0.25,0.2-0.5,0.34-0.74c0.25-0.44,0.56-0.82,0.91-1.15
					c1.57-1.47,3.99-1.82,5.95-0.69c0.34,0.2,0.65,0.43,0.92,0.69c0.57,0.53,1,1.18,1.26,1.89c0.52,1.35,0.44,2.93-0.34,4.28
					c-0.34,0.59-0.78,1.08-1.29,1.47C53.51,65.15,51.32,65.37,49.51,64.33z"/>
			</g>
		</g>
	</g>
</g>
</svg>
