<svg xmlns="http://www.w3.org/2000/svg" width="500" height="500" viewBox="0 0 500 500">
  <defs>
    <style>
      .cls-1 {
        fill: #34222e;
        fill-rule: evenodd;
      }
    </style>
  </defs>
  <path id="Shape" class="cls-1" d="M250,0C388.071,0,500,111.929,500,250S388.071,500,250,500,0,388.071,0,250,111.929,0,250,0ZM215.748,264v-5.4h-4.284V244.2h4.284v-5.4H200.664v5.4h4.32v14.4h-4.32V264h15.084Zm20.574-.09a14.842,14.842,0,0,0,3.33-1.242,8.452,8.452,0,0,0,2.412-1.8l-3.132-4.932a7.51,7.51,0,0,1-2.43,1.764,7.244,7.244,0,0,1-3.114.684,7.429,7.429,0,0,1-5.328-1.908,6.7,6.7,0,0,1-2.016-5.112,7.512,7.512,0,0,1,.918-3.8,6.438,6.438,0,0,1,2.448-2.466,6.863,6.863,0,0,1,3.438-.864,6.716,6.716,0,0,1,3.078.684,7.792,7.792,0,0,1,2.358,1.836l3.96-4.5a11.014,11.014,0,0,0-4.194-2.97,13.5,13.5,0,0,0-5.166-1.026,14.546,14.546,0,0,0-5.382.972,12.963,12.963,0,0,0-4.284,2.718,12.072,12.072,0,0,0-2.808,4.122,14.328,14.328,0,0,0,.7,11.988,12.152,12.152,0,0,0,4.662,4.626,13.727,13.727,0,0,0,6.858,1.674A15.313,15.313,0,0,0,236.322,263.91Zm26.585-.522a12.279,12.279,0,0,0,6.912-6.894,14.5,14.5,0,0,0,0-10.44,12.279,12.279,0,0,0-6.912-6.894,14.794,14.794,0,0,0-10.548,0,12.279,12.279,0,0,0-6.912,6.894,14.551,14.551,0,0,0,0,10.458,12.32,12.32,0,0,0,6.912,6.876A14.794,14.794,0,0,0,262.907,263.388Zm-8.676-5.994a6.482,6.482,0,0,1-2.322-2.5,7.522,7.522,0,0,1-.846-3.6,7.6,7.6,0,0,1,.846-3.636,6.6,6.6,0,0,1,9.09-2.484,6.481,6.481,0,0,1,2.34,2.484,7.471,7.471,0,0,1,.864,3.636,7.4,7.4,0,0,1-.864,3.6,6.618,6.618,0,0,1-2.34,2.5A6.7,6.7,0,0,1,254.231,257.394Zm27.5,6.606v-8.064q0-1.332-.036-2.34t-0.126-2.088q-0.09-1.08-.27-2.664L292.5,264h5.868V238.8h-6.3v5.868q0,2.088.036,3.672t0.162,2.97q0.126,1.386.306,2.97l-11.34-15.48h-5.8V264h6.3Z"/>
</svg>
