<svg xmlns="http://www.w3.org/2000/svg" width="819" height="634" viewBox="0 0 819 634">
  <defs>
    <style>
      .cls-1 {
        fill: #fee9d7;
        fill-rule: evenodd;
      }
    </style>
  </defs>
  <path class="cls-1" d="M135.447,592.3C229.822,624.5,309.9,573.266,381.394,520.568s151.463,7.609,195.9,61.483c54.338,65.874,158.723,71.729,213.061,1.1,43.53-56.587,42.9-153.708-47.188-202.017C656.724,334.776,588.734,277.561,573,198.512S545.834,35.289,455.75,6.01C386.118-16.619,327.338,26.676,321.337,97.5c-6.077,71.731-43.613,92.591-100.452,101.375S117.93,212.052,77.177,243.893,8.183,317.087,1.034,393.208,41.072,560.092,135.447,592.3Z"/>
</svg>
